<svg width="123" height="35" viewBox="0 0 123 35" fill="none" xmlns="http://www.w3.org/2000/svg">
<path d="M0 25.3333H9.66667V35L0 25.3333Z" fill="white"/>
<circle cx="4.83333" cy="10.8333" r="4.83333" fill="white"/>
<path d="M39.0881 27.179C38.2273 27.179 37.4858 27.0213 36.8636 26.706C36.2415 26.3906 35.7621 25.9581 35.4254 25.4084C35.0888 24.8587 34.9205 24.2301 34.9205 23.5227C34.9205 22.9773 35.0355 22.4936 35.2656 22.0717C35.5 21.6456 35.8217 21.2514 36.2308 20.8892C36.6442 20.5227 37.1193 20.1562 37.6562 19.7898L39.5483 18.3835C39.919 18.1406 40.2152 17.8807 40.4368 17.6037C40.6626 17.3267 40.7756 16.9645 40.7756 16.517C40.7756 16.1847 40.6286 15.8629 40.3345 15.5518C40.0447 15.2408 39.6634 15.0852 39.1903 15.0852C38.858 15.0852 38.5639 15.1705 38.3082 15.3409C38.0568 15.5071 37.8587 15.7202 37.7138 15.9801C37.5732 16.2358 37.5028 16.5 37.5028 16.7727C37.5028 17.0795 37.5859 17.3906 37.7521 17.706C37.9226 18.017 38.1378 18.3366 38.3977 18.6648C38.6619 18.9886 38.9347 19.321 39.2159 19.6619L45.2244 27H43.4091L38.4489 21.017C37.9886 20.4631 37.571 19.9602 37.196 19.5085C36.821 19.0568 36.5227 18.6115 36.3011 18.1726C36.0795 17.7337 35.9688 17.2585 35.9688 16.7472C35.9688 16.1591 36.0987 15.6435 36.3587 15.2003C36.6229 14.7528 36.9915 14.4055 37.4645 14.1584C37.9418 13.907 38.5 13.7812 39.1392 13.7812C39.7955 13.7812 40.3601 13.9091 40.8331 14.1648C41.3061 14.4162 41.6705 14.7507 41.9261 15.1683C42.1818 15.5817 42.3097 16.0312 42.3097 16.517C42.3097 17.1435 42.1541 17.6868 41.843 18.147C41.532 18.6072 41.108 19.0355 40.571 19.4318L37.9631 21.375C37.375 21.8097 36.9766 22.2315 36.7678 22.6406C36.5589 23.0497 36.4545 23.3437 36.4545 23.5227C36.4545 23.9318 36.5611 24.3132 36.7741 24.6669C36.9872 25.0206 37.2876 25.3061 37.6754 25.5234C38.0632 25.7408 38.517 25.8494 39.0369 25.8494C39.5313 25.8494 40.0128 25.745 40.4815 25.5362C40.9503 25.3232 41.3743 25.0163 41.7536 24.6158C42.1371 24.2152 42.4396 23.7337 42.6612 23.1712C42.8871 22.6087 43 21.9759 43 21.2727H44.4574C44.4574 22.142 44.3572 22.8516 44.157 23.4013C43.9567 23.951 43.7308 24.3814 43.4794 24.6925C43.228 25.0036 43.0256 25.2358 42.8722 25.3892C42.821 25.4531 42.7741 25.517 42.7315 25.581C42.6889 25.6449 42.642 25.7088 42.5909 25.7727C42.169 26.2457 41.6364 26.5994 40.9929 26.8338C40.3494 27.0639 39.7145 27.179 39.0881 27.179Z" fill="white"/>
<path d="M69.5156 35H67.0099L76.5341 8.81818H79.0909L88.6151 35H86.1094L77.902 11.9247H77.723L69.5156 35ZM71.3182 24.9645H84.3068V27.1122H71.3182V24.9645ZM95.4929 8.81818V35H93.1023V8.81818H95.4929Z" fill="white"/>
</svg>
